<svg id="Layer_1" data-name="Layer 1" xmlns="http://www.w3.org/2000/svg" viewBox="0 0 100 100"><defs><style>.cls-1,.cls-6{fill:#00559c;}.cls-2{fill:#fff;stroke-width:0.25px;}.cls-2,.cls-3,.cls-4,.cls-6,.cls-9{stroke:#000;stroke-miterlimit:10;}.cls-2,.cls-6{fill-rule:evenodd;}.cls-3,.cls-7{fill:#fbce65;}.cls-4{fill:none;}.cls-5,.cls-9{fill:#fbb03b;}.cls-8{fill:#1e2224;}</style></defs><circle class="cls-1" cx="50" cy="50" r="49"/><path d="M100,62a48,48,0,1,1-48,48,48.05,48.05,0,0,1,48-48m0-2a50,50,0,1,0,50,50,50,50,0,0,0-50-50Z" transform="translate(-50 -60)"/><path class="cls-2" d="M82.14,91.81a1,1,0,0,1-1,1,1,1,0,0,1-1-1,1,1,0,0,1,1-1A1,1,0,0,1,82.14,91.81Z" transform="translate(-50 -60)"/><path class="cls-2" d="M85.27,90.65a.64.64,0,0,1-.54.68.59.59,0,0,1-.54-.64.64.64,0,0,1,.54-.68A.59.59,0,0,1,85.27,90.65Z" transform="translate(-50 -60)"/><path class="cls-2" d="M86.83,94.85a1,1,0,0,1-.93,1.06,1,1,0,0,1-.92-1,1,1,0,0,1,.92-1.07A1,1,0,0,1,86.83,94.85Z" transform="translate(-50 -60)"/><path class="cls-2" d="M83.8,96.72a1.43,1.43,0,0,1-1.37,1.44,1.34,1.34,0,0,1-1.36-1.36,1.43,1.43,0,0,1,1.36-1.44A1.33,1.33,0,0,1,83.8,96.72Z" transform="translate(-50 -60)"/><path class="cls-2" d="M78.73,94.44a1,1,0,0,1-1,1,1,1,0,0,1-1-1,1,1,0,0,1,1-1A1,1,0,0,1,78.73,94.44Z" transform="translate(-50 -60)"/><path class="cls-2" d="M79.39,89.8a.64.64,0,0,1-.54.68.59.59,0,0,1-.53-.65.62.62,0,0,1,.53-.67A.59.59,0,0,1,79.39,89.8Z" transform="translate(-50 -60)"/><path class="cls-3" d="M76.5,103.5c.56,3.58,2.57,15.58,5.25,15.58,2.24,0,4-8.39,4.75-12.58" transform="translate(-50 -60)"/><line class="cls-4" x1="31.75" y1="59.08" x2="31.75" y2="80.47"/><line class="cls-5" x1="31.75" y1="59.08" x2="31.75" y2="80.47"/><path class="cls-6" d="M77.06,142a8,8,0,0,1,9.38,0" transform="translate(-50 -60)"/><path class="cls-7" d="M130.74,139c.26.7,1.17,3,.46,5-.21.59-.88,2.07-7.37,3.51-6.8,1.5-7.77.54-8.45,0a8.33,8.33,0,0,1-2.39-4.44l17.54-4.66Q130.64,138.72,130.74,139Z" transform="translate(-50 -60)"/><path class="cls-8" d="M130.53,138.4,113,143.06a72.57,72.57,0,0,1-9.47-26.19c-.23-1.6-.42-3.28-.56-5h.1l17.39-5.24.1-.06q1.17,2.13,2.29,4.5C129,124,128.89,133.3,130.53,138.4Z" transform="translate(-50 -60)"/><path class="cls-7" d="M101,69.89c1.38.25,2.14,7.1,2.14,7.1,1,8.58,9.61,15.16,17.45,29.56l-.1.06-17.39,5.24H103c-1.1-12.74-.33-28.31-3.73-33.71,0-.07-3.29-5.43-2.3-6.74a3,3,0,0,1,1.13-.65,19.61,19.61,0,0,1,1.93-.58C100.84,69.92,100.84,69.87,101,69.89Z" transform="translate(-50 -60)"/><path class="cls-4" d="M113,143.06a8.33,8.33,0,0,0,2.39,4.44c.68.58,1.65,1.54,8.45,0,6.49-1.44,7.16-2.92,7.37-3.51.71-2-.2-4.33-.46-5q-.11-.28-.21-.6c-1.64-5.1-1.58-14.44-7.69-27.35q-1.12-2.37-2.29-4.5c-7.84-14.4-16.5-21-17.45-29.56,0,0-.76-6.85-2.14-7.1-.12,0-.12,0-1,.29a19.61,19.61,0,0,0-1.93.58,3,3,0,0,0-1.13.65c-1,1.31,2.25,6.67,2.3,6.74,3.4,5.4,2.63,21,3.73,33.71.14,1.73.33,3.41.56,5A72.57,72.57,0,0,0,113,143.06Z" transform="translate(-50 -60)"/><polyline class="cls-4" points="62.99 83.06 80.53 78.4 81.04 78.27"/><line class="cls-4" x1="53.06" y1="51.85" x2="70.45" y2="46.61"/><line class="cls-4" x1="25.5" y1="37.5" x2="26.5" y2="43.5"/><line class="cls-4" x1="37.5" y1="39.5" x2="36.5" y2="46.5"/><path class="cls-3" d="M76.5,103.5a3.82,3.82,0,0,1,2-1,3.35,3.35,0,0,1,1,0,9.38,9.38,0,0,1,4,2c.67.47,1.69,1.16,3,2" transform="translate(-50 -60)"/><path class="cls-9" d="M61.5,119.5" transform="translate(-50 -60)"/></svg>