<svg id="Capa_1" enable-background="new 0 0 512 512" height="512" viewBox="0 0 512 512" width="512" xmlns="http://www.w3.org/2000/svg"><g><g><path d="m66.74 105.07c-36.8 0-66.74 29.939-66.74 66.74s29.939 66.739 66.74 66.739h104.051v54.88l71.881-54.88h13.328l22.268-62.754-22.268-70.725z" fill="#ecfaff"/><path d="m445.261 105.07h-189.261v133.479h17.338l71.881 54.879v-54.879h100.042c36.8 0 66.739-29.939 66.739-66.739s-29.939-66.74-66.739-66.74z" fill="#c4e6fe"/></g><g><path d="m220.206 50.35-58.946 18.483 36.824 49.601-.637 61.774 58.553-19.696 15.662-69.268-15.662-91.244z" fill="#fff06d"/></g><g><g><path d="m66.517 388.146-32.457 25.422c-21.645 16.954-34.06 42.448-34.06 69.944v28.488h102.716l23.626-58.775-23.626-64.854z" fill="#f37"/><path d="m205.706 483.512c0-27.496-12.415-52.989-34.061-69.943l-31.874-24.966-37.056-.231v123.628h102.99v-28.488z" fill="#cc295f"/></g><g><path d="m50.438 351.787v7.215c0 28.826 23.451 52.277 52.277 52.277l17.02-49.209-17.02-62.559c-28.825-.001-52.277 23.45-52.277 52.276z" fill="#fecec0"/><path d="m102.716 299.51v111.769c28.826 0 52.277-23.451 52.277-52.277v-7.215c0-28.826-23.451-52.277-52.277-52.277z" fill="#febfad"/></g></g><g><g><path d="m372.811 388.146-32.457 25.422c-21.646 16.954-34.06 42.448-34.06 69.943v28.489h102.716l23.626-58.775-23.626-64.854z" fill="#6daafc"/><path d="m512 483.512c0-27.496-12.415-52.989-34.061-69.943l-31.874-24.966-37.056-.231v123.628h102.991z" fill="#6680ff"/></g><g><path d="m356.732 351.787v7.215c0 28.826 23.451 52.277 52.277 52.277l17.02-49.209-17.02-62.559c-28.825-.001-52.277 23.45-52.277 52.276z" fill="#fecec0"/><path d="m409.01 299.51v111.769c28.826 0 52.277-23.451 52.277-52.277v-7.215c0-28.826-23.452-52.277-52.277-52.277z" fill="#febfad"/></g></g><path d="m350.74 68.833-58.946-18.483-35.794-50.35v160.512l58.553 19.696-.638-61.774z" fill="#fed943"/></g></svg>